<svg width="13" height="13" viewBox="0 0 13 13" fill="none" xmlns="http://www.w3.org/2000/svg">
<rect x="0.142578" y="0.107178" width="11.9437" height="11.9437" rx="5.97186" fill="#F2F4F7"/>
<path d="M8.77238 8.48805C8.70934 8.48805 8.64629 8.46482 8.59652 8.41505L6.95401 6.77253C6.85778 6.67631 6.85778 6.51703 6.95401 6.4208C7.05024 6.32458 7.20951 6.32458 7.30574 6.4208L8.94825 8.06332C9.04448 8.15955 9.04448 8.31882 8.94825 8.41505C8.89848 8.46482 8.83543 8.48805 8.77238 8.48805Z" fill="black"/>
<path d="M5.48784 8.21252C5.24561 8.21252 5.01334 8.11629 4.84411 7.94375L3.43718 6.53683C3.08214 6.18178 3.08214 5.60109 3.43718 5.24604L5.78316 2.90008C6.13821 2.54503 6.7189 2.54503 7.07394 2.90008L8.48087 4.30699C8.65341 4.47954 8.74964 4.7085 8.74964 4.95073C8.74964 5.19296 8.65341 5.42523 8.48087 5.59446L6.13489 7.94043C5.96234 8.11961 5.73339 8.21252 5.48784 8.21252ZM6.42689 3.13234C6.32071 3.13234 6.21453 3.17216 6.13489 3.25512L3.78892 5.60109C3.62633 5.76368 3.62633 6.02582 3.78892 6.18841L5.19584 7.59534C5.35179 7.7513 5.62389 7.7513 5.78316 7.59534L8.12914 5.24936C8.20877 5.16973 8.25191 5.06686 8.25191 4.95736C8.25191 4.84786 8.20877 4.74167 8.12914 4.66535L6.72221 3.25844C6.63926 3.17216 6.53308 3.13234 6.42689 3.13234Z" fill="black"/>
<path d="M4.78764 9.31438H2.79672C2.66067 9.31438 2.54785 9.20156 2.54785 9.06552C2.54785 8.92947 2.66067 8.81665 2.79672 8.81665H4.78764C4.92369 8.81665 5.03651 8.92947 5.03651 9.06552C5.03651 9.20156 4.92369 9.31438 4.78764 9.31438Z" fill="black"/>
<path d="M6.65554 7.32016C6.59249 7.32016 6.52944 7.29693 6.47967 7.24716L4.13369 4.9012C4.03747 4.80497 4.03747 4.64569 4.13369 4.54947C4.22992 4.45324 4.3892 4.45324 4.48542 4.54947L6.8314 6.89543C6.92763 6.99166 6.92763 7.15093 6.8314 7.24716C6.78495 7.29693 6.71858 7.32016 6.65554 7.32016Z" fill="black"/>
</svg>
