<svg width="13" height="13" viewBox="0 0 13 13" fill="none" xmlns="http://www.w3.org/2000/svg">
<rect x="0.239258" y="0.107178" width="11.9437" height="11.9437" rx="5.97186" fill="#F2F4F7"/>
<path d="M4.88363 4.00516C4.74758 4.00516 4.63477 3.89234 4.63477 3.75629V2.76083C4.63477 2.62478 4.74758 2.51196 4.88363 2.51196C5.01968 2.51196 5.1325 2.62478 5.1325 2.76083V3.75629C5.1325 3.89234 5.01968 4.00516 4.88363 4.00516Z" fill="black"/>
<path d="M7.5389 4.00516C7.40286 4.00516 7.29004 3.89234 7.29004 3.75629V2.76083C7.29004 2.62478 7.40286 2.51196 7.5389 2.51196C7.67495 2.51196 7.78777 2.62478 7.78777 2.76083V3.75629C7.78777 3.89234 7.67495 4.00516 7.5389 4.00516Z" fill="black"/>
<path d="M5.04959 6.90863C5.00646 6.90863 4.96332 6.89868 4.9235 6.88209C4.88037 6.86549 4.84718 6.84226 4.814 6.8124C4.75427 6.74935 4.71777 6.6664 4.71777 6.57681C4.71777 6.53367 4.72773 6.49053 4.74432 6.45071C4.76091 6.41089 4.78414 6.3744 4.814 6.34122C4.84718 6.31135 4.88037 6.28812 4.9235 6.27153C5.04296 6.22175 5.19228 6.24831 5.28519 6.34122C5.34491 6.40426 5.38142 6.49053 5.38142 6.57681C5.38142 6.59672 5.3781 6.61995 5.37478 6.64317C5.37146 6.66308 5.36482 6.68299 5.35487 6.7029C5.34823 6.72281 5.33828 6.74272 5.32501 6.76263C5.31505 6.77922 5.29846 6.79581 5.28519 6.8124C5.22214 6.87212 5.13587 6.90863 5.04959 6.90863Z" fill="black"/>
<path d="M6.21073 6.90864C6.16759 6.90864 6.12445 6.89869 6.08463 6.8821C6.0415 6.8655 6.00832 6.84227 5.97513 6.81241C5.91541 6.74936 5.87891 6.66641 5.87891 6.57682C5.87891 6.53368 5.88886 6.49054 5.90545 6.45072C5.92204 6.4109 5.94527 6.37441 5.97513 6.34123C6.00832 6.31136 6.0415 6.28813 6.08463 6.27154C6.20409 6.21845 6.35341 6.24832 6.44632 6.34123C6.50605 6.40427 6.54255 6.49054 6.54255 6.57682C6.54255 6.59673 6.53923 6.61996 6.53591 6.64318C6.53259 6.66309 6.52596 6.683 6.516 6.70291C6.50937 6.72282 6.49941 6.74273 6.48614 6.76263C6.47618 6.77923 6.45959 6.79582 6.44632 6.81241C6.38327 6.87213 6.297 6.90864 6.21073 6.90864Z" fill="black"/>
<path d="M7.37284 6.90864C7.3297 6.90864 7.28656 6.89869 7.24674 6.8821C7.20361 6.8655 7.17043 6.84227 7.13724 6.81241C7.12397 6.79582 7.1107 6.77923 7.09742 6.76263C7.08415 6.74273 7.0742 6.72282 7.06756 6.70291C7.05761 6.683 7.05097 6.66309 7.04765 6.64318C7.04433 6.61996 7.04102 6.59673 7.04102 6.57682C7.04102 6.49054 7.07752 6.40427 7.13724 6.34123C7.17043 6.31136 7.20361 6.28813 7.24674 6.27154C7.36952 6.21845 7.51552 6.24832 7.60843 6.34123C7.66816 6.40427 7.70466 6.49054 7.70466 6.57682C7.70466 6.59673 7.70134 6.61996 7.69802 6.64318C7.6947 6.66309 7.68807 6.683 7.67811 6.70291C7.67147 6.72282 7.66152 6.74273 7.64825 6.76263C7.63829 6.77923 7.6217 6.79582 7.60843 6.81241C7.54538 6.87213 7.45911 6.90864 7.37284 6.90864Z" fill="black"/>
<path d="M5.04959 8.06989C5.00646 8.06989 4.96332 8.05994 4.9235 8.04335C4.88368 8.02676 4.84718 8.00352 4.814 7.97366C4.75427 7.91062 4.71777 7.82434 4.71777 7.73807C4.71777 7.69493 4.72773 7.6518 4.74432 7.61198C4.76091 7.56884 4.78414 7.53234 4.814 7.50248C4.93678 7.37971 5.16241 7.37971 5.28519 7.50248C5.34491 7.56553 5.38142 7.6518 5.38142 7.73807C5.38142 7.82434 5.34491 7.91062 5.28519 7.97366C5.22214 8.03339 5.13587 8.06989 5.04959 8.06989Z" fill="black"/>
<path d="M6.21073 8.06989C6.12445 8.06989 6.03818 8.03339 5.97513 7.97366C5.91541 7.91062 5.87891 7.82434 5.87891 7.73807C5.87891 7.69493 5.88886 7.6518 5.90545 7.61198C5.92204 7.56884 5.94527 7.53234 5.97513 7.50248C6.09791 7.37971 6.32355 7.37971 6.44632 7.50248C6.47618 7.53234 6.49941 7.56884 6.516 7.61198C6.53259 7.6518 6.54255 7.69493 6.54255 7.73807C6.54255 7.82434 6.50605 7.91062 6.44632 7.97366C6.38327 8.03339 6.297 8.06989 6.21073 8.06989Z" fill="black"/>
<path d="M7.37284 8.06994C7.28656 8.06994 7.20029 8.03344 7.13724 7.97371C7.10738 7.94385 7.08415 7.90735 7.06756 7.86422C7.05097 7.8244 7.04102 7.78126 7.04102 7.73812C7.04102 7.69499 7.05097 7.65185 7.06756 7.61203C7.08415 7.56889 7.10738 7.5324 7.13724 7.50253C7.21356 7.42621 7.3297 7.38971 7.43588 7.41293C7.45911 7.41625 7.47902 7.42289 7.49893 7.43284C7.51884 7.43948 7.53875 7.44944 7.55866 7.46272C7.57525 7.47267 7.59184 7.48926 7.60843 7.50253C7.66816 7.56558 7.70466 7.65185 7.70466 7.73812C7.70466 7.8244 7.66816 7.91067 7.60843 7.97371C7.54538 8.03344 7.45911 8.06994 7.37284 8.06994Z" fill="black"/>
<path d="M9.03142 5.36223H3.39047C3.25442 5.36223 3.1416 5.24941 3.1416 5.11337C3.1416 4.97732 3.25442 4.8645 3.39047 4.8645H9.03142C9.16747 4.8645 9.28029 4.97732 9.28029 5.11337C9.28029 5.24941 9.16747 5.36223 9.03142 5.36223Z" fill="black"/>
<path d="M7.5391 9.64594H4.88453C3.67339 9.64594 2.97656 8.94912 2.97656 7.73797V4.91749C2.97656 3.70635 3.67339 3.00952 4.88453 3.00952H7.5391C8.75025 3.00952 9.44707 3.70635 9.44707 4.91749V7.73797C9.44707 8.94912 8.75025 9.64594 7.5391 9.64594ZM4.88453 3.50725C3.93552 3.50725 3.47429 3.96848 3.47429 4.91749V7.73797C3.47429 8.68698 3.93552 9.14821 4.88453 9.14821H7.5391C8.48811 9.14821 8.94934 8.68698 8.94934 7.73797V4.91749C8.94934 3.96848 8.48811 3.50725 7.5391 3.50725H4.88453Z" fill="black"/>
</svg>
