<svg width="40" height="40" viewBox="0 0 40 40" fill="none" xmlns="http://www.w3.org/2000/svg">
<rect width="40" height="40" rx="20" fill="#4A0CB6" fill-opacity="0.15"/>
<path d="M27.9994 19.7501H11.9994C11.7694 19.7501 11.5594 19.6501 11.4194 19.4701C11.2794 19.3001 11.2194 19.0601 11.2694 18.8401L12.3994 13.4401C12.7694 11.6901 13.5194 10.0801 16.4894 10.0801H23.5194C26.4894 10.0801 27.2394 11.7001 27.6094 13.4401L28.7394 18.8501C28.7894 19.0701 28.7294 19.3001 28.5894 19.4801C28.4394 19.6501 28.2294 19.7501 27.9994 19.7501ZM12.9194 18.2501H27.0694L26.1294 13.7501C25.8494 12.4401 25.5194 11.5801 23.5094 11.5801H16.4894C14.4794 11.5801 14.1494 12.4401 13.8694 13.7501L12.9194 18.2501Z" fill="#4A0CB6"/>
<path d="M27.9596 30.75H26.0796C24.4596 30.75 24.1496 29.82 23.9496 29.21L23.7496 28.61C23.4896 27.85 23.4596 27.75 22.5596 27.75H17.4396C16.5396 27.75 16.4796 27.92 16.2496 28.61L16.0496 29.21C15.8396 29.83 15.5396 30.75 13.9196 30.75H12.0396C11.2496 30.75 10.4896 30.42 9.9596 29.84C9.4396 29.27 9.1896 28.51 9.2596 27.75L9.8196 21.66C9.9696 20.01 10.4096 18.25 13.6196 18.25H26.3796C29.5896 18.25 30.0196 20.01 30.1796 21.66L30.7396 27.75C30.8096 28.51 30.5596 29.27 30.0396 29.84C29.5096 30.42 28.7496 30.75 27.9596 30.75ZM17.4396 26.25H22.5596C24.3796 26.25 24.8096 27.06 25.1696 28.12L25.3796 28.74C25.5496 29.25 25.5496 29.26 26.0896 29.26H27.9696C28.3396 29.26 28.6896 29.11 28.9396 28.84C29.1796 28.58 29.2896 28.25 29.2596 27.9L28.6996 21.81C28.5696 20.46 28.4096 19.76 26.3996 19.76H13.6196C11.5996 19.76 11.4396 20.46 11.3196 21.81L10.7596 27.9C10.7296 28.25 10.8396 28.58 11.0796 28.84C11.3196 29.11 11.6796 29.26 12.0496 29.26H13.9296C14.4696 29.26 14.4696 29.25 14.6396 28.75L14.8396 28.14C15.0896 27.34 15.4596 26.25 17.4396 26.25Z" fill="#4A0CB6"/>
<path d="M12 16.75H11C10.59 16.75 10.25 16.41 10.25 16C10.25 15.59 10.59 15.25 11 15.25H12C12.41 15.25 12.75 15.59 12.75 16C12.75 16.41 12.41 16.75 12 16.75Z" fill="#4A0CB6"/>
<path d="M29 16.75H28C27.59 16.75 27.25 16.41 27.25 16C27.25 15.59 27.59 15.25 28 15.25H29C29.41 15.25 29.75 15.59 29.75 16C29.75 16.41 29.41 16.75 29 16.75Z" fill="#4A0CB6"/>
<path d="M20 13.75C19.59 13.75 19.25 13.41 19.25 13V11C19.25 10.59 19.59 10.25 20 10.25C20.41 10.25 20.75 10.59 20.75 11V13C20.75 13.41 20.41 13.75 20 13.75Z" fill="#4A0CB6"/>
<path d="M21.5 13.75H18.5C18.09 13.75 17.75 13.41 17.75 13C17.75 12.59 18.09 12.25 18.5 12.25H21.5C21.91 12.25 22.25 12.59 22.25 13C22.25 13.41 21.91 13.75 21.5 13.75Z" fill="#4A0CB6"/>
<path d="M17 23.75H14C13.59 23.75 13.25 23.41 13.25 23C13.25 22.59 13.59 22.25 14 22.25H17C17.41 22.25 17.75 22.59 17.75 23C17.75 23.41 17.41 23.75 17 23.75Z" fill="#4A0CB6"/>
<path d="M26 23.75H23C22.59 23.75 22.25 23.41 22.25 23C22.25 22.59 22.59 22.25 23 22.25H26C26.41 22.25 26.75 22.59 26.75 23C26.75 23.41 26.41 23.75 26 23.75Z" fill="#4A0CB6"/>
</svg>
