<svg width="40" height="40" viewBox="0 0 40 40" fill="none" xmlns="http://www.w3.org/2000/svg">
<rect width="40" height="40" rx="20" fill="#4A0CB6" fill-opacity="0.15"/>
<path d="M21.4002 25.4201H18.8902C17.2502 25.4201 15.9202 24.0401 15.9202 22.3401C15.9202 21.9301 16.2602 21.5901 16.6702 21.5901C17.0802 21.5901 17.4202 21.9301 17.4202 22.3401C17.4202 23.2101 18.0802 23.9201 18.8902 23.9201H21.4002C22.0502 23.9201 22.5902 23.3401 22.5902 22.6401C22.5902 21.7701 22.2802 21.6001 21.7702 21.4201L17.7402 20.0001C16.9602 19.7301 15.9102 19.1501 15.9102 17.3601C15.9102 15.8201 17.1202 14.5801 18.6002 14.5801H21.1102C22.7502 14.5801 24.0802 15.9601 24.0802 17.6601C24.0802 18.0701 23.7402 18.4101 23.3302 18.4101C22.9202 18.4101 22.5802 18.0701 22.5802 17.6601C22.5802 16.7901 21.9202 16.0801 21.1102 16.0801H18.6002C17.9502 16.0801 17.4102 16.6601 17.4102 17.3601C17.4102 18.2301 17.7202 18.4001 18.2302 18.5801L22.2602 20.0001C23.0402 20.2701 24.0902 20.8501 24.0902 22.6401C24.0802 24.1701 22.8802 25.4201 21.4002 25.4201Z" fill="#4A0CB6"/>
<path d="M20 26.75C19.59 26.75 19.25 26.41 19.25 26V14C19.25 13.59 19.59 13.25 20 13.25C20.41 13.25 20.75 13.59 20.75 14V26C20.75 26.41 20.41 26.75 20 26.75Z" fill="#4A0CB6"/>
<path d="M23 30.75H17C11.57 30.75 9.25 28.43 9.25 23V17C9.25 11.57 11.57 9.25 17 9.25H23C28.43 9.25 30.75 11.57 30.75 17V23C30.75 28.43 28.43 30.75 23 30.75ZM17 10.75C12.39 10.75 10.75 12.39 10.75 17V23C10.75 27.61 12.39 29.25 17 29.25H23C27.61 29.25 29.25 27.61 29.25 23V17C29.25 12.39 27.61 10.75 23 10.75H17Z" fill="#4A0CB6"/>
</svg>
