<svg width="40" height="40" viewBox="0 0 40 40" fill="none" xmlns="http://www.w3.org/2000/svg">
<rect width="40" height="40" rx="20" fill="#4A0CB6" fill-opacity="0.15"/>
<path d="M24.2804 30.1H20.4804C19.9204 30.1 18.7004 29.93 18.0504 29.28L15.0204 26.94L15.9404 25.75L19.0404 28.15C19.2904 28.39 19.9204 28.59 20.4804 28.59H24.2804C25.1804 28.59 26.1504 27.87 26.3504 27.06L28.7704 19.71C28.9304 19.27 28.9004 18.87 28.6904 18.58C28.4704 18.27 28.0704 18.09 27.5804 18.09H23.5804C23.0604 18.09 22.5804 17.87 22.2504 17.49C21.9104 17.1 21.7604 16.58 21.8404 16.04L22.3404 12.83C22.4604 12.27 22.0804 11.64 21.5404 11.46C21.0504 11.28 20.4204 11.54 20.2004 11.86L16.1004 17.96L14.8604 17.13L18.9604 11.03C19.5904 10.09 20.9704 9.63999 22.0504 10.05C23.3004 10.46 24.1004 11.84 23.8204 13.12L23.3304 16.27C23.3204 16.34 23.3204 16.44 23.3904 16.52C23.4404 16.57 23.5104 16.6 23.5904 16.6H27.5904C28.5704 16.6 29.4204 17.01 29.9204 17.72C30.4104 18.41 30.5104 19.32 30.1904 20.2L27.8004 27.48C27.4304 28.93 25.8904 30.1 24.2804 30.1Z" fill="#4A0CB6"/>
<path d="M13.3799 28.9999H12.3799C10.5299 28.9999 9.62988 28.1299 9.62988 26.3499V16.5499C9.62988 14.7699 10.5299 13.8999 12.3799 13.8999H13.3799C15.2299 13.8999 16.1299 14.7699 16.1299 16.5499V26.3499C16.1299 28.1299 15.2299 28.9999 13.3799 28.9999ZM12.3799 15.3999C11.2899 15.3999 11.1299 15.6599 11.1299 16.5499V26.3499C11.1299 27.2399 11.2899 27.4999 12.3799 27.4999H13.3799C14.4699 27.4999 14.6299 27.2399 14.6299 26.3499V16.5499C14.6299 15.6599 14.4699 15.3999 13.3799 15.3999H12.3799Z" fill="#4A0CB6"/>
</svg>
