<svg width="40" height="40" viewBox="0 0 40 40" fill="none" xmlns="http://www.w3.org/2000/svg">
<rect width="40" height="40" rx="20" fill="#4A0CB6" fill-opacity="0.15"/>
<path d="M20 30.75C19.3 30.75 18.59 30.48 18.06 29.95L16.35 28.26C15.92 27.84 15.36 27.61 14.76 27.61H14C11.93 27.61 10.25 25.94 10.25 23.89V12.98C10.25 10.93 11.93 9.26001 14 9.26001H26C28.07 9.26001 29.75 10.93 29.75 12.98V23.89C29.75 25.94 28.07 27.61 26 27.61H25.24C24.64 27.61 24.07 27.84 23.65 28.26L21.94 29.95C21.41 30.48 20.7 30.75 20 30.75ZM14 10.75C12.76 10.75 11.75 11.75 11.75 12.97V23.88C11.75 25.11 12.76 26.1 14 26.1H14.76C15.76 26.1 16.7 26.4899 17.41 27.1899L19.12 28.88C19.61 29.36 20.4 29.36 20.89 28.88L22.6 27.1899C23.31 26.4899 24.25 26.1 25.25 26.1H26C27.24 26.1 28.25 25.1 28.25 23.88V12.97C28.25 11.74 27.24 10.75 26 10.75H14Z" fill="#4A0CB6"/>
<path d="M18.3802 22.51H15.7002C15.2602 22.51 14.8502 22.2999 14.5902 21.9399C14.3402 21.5999 14.2802 21.18 14.4002 20.78C14.7502 19.71 15.6102 19.13 16.3702 18.61C17.1702 18.07 17.6202 17.73 17.6202 17.15C17.6202 16.63 17.2002 16.21 16.6802 16.21C16.1602 16.21 15.7402 16.63 15.7402 17.15C15.7402 17.56 15.4002 17.9 14.9902 17.9C14.5802 17.9 14.2402 17.56 14.2402 17.15C14.2402 15.81 15.3302 14.71 16.6802 14.71C18.0302 14.71 19.1202 15.8 19.1202 17.15C19.1202 18.56 18.0602 19.28 17.2102 19.86C16.6802 20.22 16.1802 20.56 15.9302 21.01H18.3702C18.7802 21.01 19.1202 21.35 19.1202 21.76C19.1202 22.17 18.7902 22.51 18.3802 22.51Z" fill="#4A0CB6"/>
<path d="M24.0399 22.5099C23.6299 22.5099 23.2899 22.1699 23.2899 21.7599V21.0699H21.3299C21.3299 21.0699 21.3299 21.0699 21.3199 21.0699C20.8299 21.0699 20.3799 20.81 20.1299 20.39C19.8799 19.96 19.8799 19.4299 20.1299 19.0099C20.8099 17.8399 21.5999 16.5099 22.3199 15.3499C22.6399 14.8399 23.2499 14.61 23.8199 14.77C24.3899 14.94 24.7899 15.46 24.7799 16.06V19.5799H24.9999C25.4099 19.5799 25.7499 19.9199 25.7499 20.3299C25.7499 20.7399 25.4099 21.0799 24.9999 21.0799H24.7899V21.77C24.7899 22.18 24.4599 22.5099 24.0399 22.5099ZM23.2899 16.64C22.6999 17.6 22.0899 18.6299 21.5399 19.5699H23.2899V16.64Z" fill="#4A0CB6"/>
</svg>
