<svg width="40" height="40" viewBox="0 0 40 40" fill="none" xmlns="http://www.w3.org/2000/svg">
<rect width="40" height="40" rx="20" fill="#4A0CB6" fill-opacity="0.15"/>
<path d="M20.0006 21.0799C19.8706 21.0799 19.7406 21.0499 19.6206 20.9799L14.3206 17.9199C13.9606 17.7099 13.8406 17.2499 14.0506 16.8999C14.2606 16.5399 14.7106 16.4199 15.0806 16.6299L20.0006 19.4799L24.8906 16.6499C25.2506 16.4399 25.7106 16.5699 25.9206 16.9199C26.1306 17.2799 26.0006 17.7399 25.6506 17.9399L20.3906 20.9799C20.2606 21.0399 20.1306 21.0799 20.0006 21.0799Z" fill="#4A0CB6"/>
<path d="M20 26.5201C19.59 26.5201 19.25 26.1801 19.25 25.7701V20.3301C19.25 19.9201 19.59 19.5801 20 19.5801C20.41 19.5801 20.75 19.9201 20.75 20.3301V25.7701C20.75 26.1801 20.41 26.5201 20 26.5201Z" fill="#4A0CB6"/>
<path d="M20.0002 26.75C19.4202 26.75 18.8503 26.62 18.3903 26.37L15.1902 24.59C14.2302 24.06 13.4902 22.79 13.4902 21.69V18.3C13.4902 17.21 14.2402 15.93 15.1902 15.4L18.3903 13.62C19.3103 13.11 20.6902 13.11 21.6102 13.62L24.8102 15.4C25.7702 15.93 26.5103 17.2 26.5103 18.3V21.69C26.5103 22.78 25.7602 24.06 24.8102 24.59L21.6102 26.37C21.1502 26.62 20.5802 26.75 20.0002 26.75ZM20.0002 14.75C19.6702 14.75 19.3502 14.81 19.1202 14.94L15.9203 16.72C15.4303 16.99 14.9902 17.75 14.9902 18.3V21.69C14.9902 22.25 15.4303 23 15.9203 23.27L19.1202 25.05C19.5802 25.31 20.4202 25.31 20.8802 25.05L24.0802 23.27C24.5702 23 25.0103 22.24 25.0103 21.69V18.3C25.0103 17.74 24.5702 16.99 24.0802 16.72L20.8802 14.94C20.6502 14.81 20.3302 14.75 20.0002 14.75Z" fill="#4A0CB6"/>
<path d="M23.0002 30.75C22.7302 30.75 22.4802 30.6 22.3502 30.37C22.2202 30.13 22.2202 29.85 22.3602 29.61L23.4102 27.86C23.6202 27.51 24.0802 27.39 24.4402 27.6C24.8002 27.81 24.9102 28.27 24.7002 28.63L24.4302 29.08C27.1902 28.43 29.2602 25.95 29.2602 22.99C29.2602 22.58 29.6002 22.24 30.0102 22.24C30.4202 22.24 30.7602 22.58 30.7602 22.99C30.7502 27.27 27.2702 30.75 23.0002 30.75Z" fill="#4A0CB6"/>
<path d="M10 17.75C9.59 17.75 9.25 17.41 9.25 17C9.25 12.73 12.73 9.25 17 9.25C17.27 9.25 17.52 9.4 17.65 9.63C17.78 9.87 17.78 10.15 17.64 10.39L16.59 12.14C16.38 12.49 15.92 12.61 15.56 12.4C15.2 12.19 15.09 11.73 15.3 11.37L15.57 10.92C12.81 11.57 10.74 14.05 10.74 17.01C10.75 17.41 10.41 17.75 10 17.75Z" fill="#4A0CB6"/>
</svg>
