<svg width="52" height="52" viewBox="0 0 52 52" fill="none" xmlns="http://www.w3.org/2000/svg">
<g filter="url(#filter0_d_130_1602)">
<rect x="2" y="1" width="48" height="48" rx="10" fill="white" shape-rendering="crispEdges"/>
<rect x="2.5" y="1.5" width="47" height="47" rx="9.5" stroke="#EAECF0" shape-rendering="crispEdges"/>
<path d="M26 35.75C20.07 35.75 15.25 30.93 15.25 25C15.25 19.07 20.07 14.25 26 14.25C31.93 14.25 36.75 19.07 36.75 25C36.75 30.93 31.93 35.75 26 35.75ZM26 15.75C20.9 15.75 16.75 19.9 16.75 25C16.75 30.1 20.9 34.25 26 34.25C31.1 34.25 35.25 30.1 35.25 25C35.25 19.9 31.1 15.75 26 15.75Z" fill="#292D32"/>
<path d="M23.0002 34.75H22.0002C21.5902 34.75 21.2502 34.41 21.2502 34C21.2502 33.59 21.5702 33.26 21.9802 33.25C20.4102 27.89 20.4102 22.11 21.9802 16.75C21.5702 16.74 21.2502 16.41 21.2502 16C21.2502 15.59 21.5902 15.25 22.0002 15.25H23.0002C23.2402 15.25 23.4702 15.37 23.6102 15.56C23.7502 15.76 23.7902 16.01 23.7102 16.24C21.8302 21.89 21.8302 28.11 23.7102 33.77C23.7902 34 23.7502 34.25 23.6102 34.45C23.4702 34.63 23.2402 34.75 23.0002 34.75Z" fill="#292D32"/>
<path d="M29.0004 34.7499C28.9204 34.7499 28.8404 34.7399 28.7604 34.7099C28.3704 34.5799 28.1504 34.1499 28.2904 33.7599C30.1704 28.1099 30.1704 21.8899 28.2904 16.2299C28.1604 15.8399 28.3704 15.4099 28.7604 15.2799C29.1604 15.1499 29.5804 15.3599 29.7104 15.7499C31.7004 21.7099 31.7004 28.2699 29.7104 34.2199C29.6104 34.5499 29.3104 34.7499 29.0004 34.7499Z" fill="#292D32"/>
<path d="M26 30.2C23.21 30.2 20.43 29.81 17.75 29.02C17.74 29.42 17.41 29.75 17 29.75C16.59 29.75 16.25 29.41 16.25 29V28C16.25 27.76 16.37 27.53 16.56 27.39C16.76 27.25 17.01 27.21 17.24 27.29C22.89 29.17 29.12 29.17 34.77 27.29C35 27.21 35.25 27.25 35.45 27.39C35.65 27.53 35.76 27.76 35.76 28V29C35.76 29.41 35.42 29.75 35.01 29.75C34.6 29.75 34.27 29.43 34.26 29.02C31.57 29.81 28.79 30.2 26 30.2Z" fill="#292D32"/>
<path d="M34.9998 22.7501C34.9198 22.7501 34.8398 22.7401 34.7598 22.7101C29.1098 20.8301 22.8798 20.8301 17.2298 22.7101C16.8298 22.8401 16.4098 22.6301 16.2798 22.2401C16.1598 21.8401 16.3698 21.4201 16.7598 21.2901C22.7198 19.3001 29.2798 19.3001 35.2298 21.2901C35.6198 21.4201 35.8398 21.8501 35.6998 22.2401C35.6098 22.5501 35.3098 22.7501 34.9998 22.7501Z" fill="#292D32"/>
</g>
<defs>
<filter id="filter0_d_130_1602" x="0" y="0" width="52" height="52" filterUnits="userSpaceOnUse" color-interpolation-filters="sRGB">
<feFlood flood-opacity="0" result="BackgroundImageFix"/>
<feColorMatrix in="SourceAlpha" type="matrix" values="0 0 0 0 0 0 0 0 0 0 0 0 0 0 0 0 0 0 127 0" result="hardAlpha"/>
<feOffset dy="1"/>
<feGaussianBlur stdDeviation="1"/>
<feComposite in2="hardAlpha" operator="out"/>
<feColorMatrix type="matrix" values="0 0 0 0 0.0627451 0 0 0 0 0.0941176 0 0 0 0 0.156863 0 0 0 0.05 0"/>
<feBlend mode="normal" in2="BackgroundImageFix" result="effect1_dropShadow_130_1602"/>
<feBlend mode="normal" in="SourceGraphic" in2="effect1_dropShadow_130_1602" result="shape"/>
</filter>
</defs>
</svg>
