<svg width="52" height="52" viewBox="0 0 52 52" fill="none" xmlns="http://www.w3.org/2000/svg">
<g filter="url(#filter0_d_130_1609)">
<rect x="2" y="1" width="48" height="48" rx="10" fill="white" shape-rendering="crispEdges"/>
<rect x="2.5" y="1.5" width="47" height="47" rx="9.5" stroke="#EAECF0" shape-rendering="crispEdges"/>
<path d="M33.9994 24.7501H17.9994C17.7694 24.7501 17.5594 24.6501 17.4194 24.4701C17.2794 24.3001 17.2194 24.0601 17.2694 23.8401L18.3994 18.4401C18.7694 16.6901 19.5194 15.0801 22.4894 15.0801H29.5194C32.4894 15.0801 33.2394 16.7001 33.6094 18.4401L34.7394 23.8501C34.7894 24.0701 34.7294 24.3001 34.5894 24.4801C34.4394 24.6501 34.2294 24.7501 33.9994 24.7501ZM18.9194 23.2501H33.0694L32.1294 18.7501C31.8494 17.4401 31.5194 16.5801 29.5094 16.5801H22.4894C20.4794 16.5801 20.1494 17.4401 19.8694 18.7501L18.9194 23.2501Z" fill="#292D32"/>
<path d="M33.9596 35.75H32.0796C30.4596 35.75 30.1496 34.82 29.9496 34.21L29.7496 33.61C29.4896 32.85 29.4596 32.75 28.5596 32.75H23.4396C22.5396 32.75 22.4796 32.92 22.2496 33.61L22.0496 34.21C21.8396 34.83 21.5396 35.75 19.9196 35.75H18.0396C17.2496 35.75 16.4896 35.42 15.9596 34.84C15.4396 34.27 15.1896 33.51 15.2596 32.75L15.8196 26.66C15.9696 25.01 16.4096 23.25 19.6196 23.25H32.3796C35.5896 23.25 36.0196 25.01 36.1796 26.66L36.7396 32.75C36.8096 33.51 36.5596 34.27 36.0396 34.84C35.5096 35.42 34.7496 35.75 33.9596 35.75ZM23.4396 31.25H28.5596C30.3796 31.25 30.8096 32.06 31.1696 33.12L31.3796 33.74C31.5496 34.25 31.5496 34.26 32.0896 34.26H33.9696C34.3396 34.26 34.6896 34.11 34.9396 33.84C35.1796 33.58 35.2896 33.25 35.2596 32.9L34.6996 26.81C34.5696 25.46 34.4096 24.76 32.3996 24.76H19.6196C17.5996 24.76 17.4396 25.46 17.3196 26.81L16.7596 32.9C16.7296 33.25 16.8396 33.58 17.0796 33.84C17.3196 34.11 17.6796 34.26 18.0496 34.26H19.9296C20.4696 34.26 20.4696 34.25 20.6396 33.75L20.8396 33.14C21.0896 32.34 21.4596 31.25 23.4396 31.25Z" fill="#292D32"/>
<path d="M18 21.75H17C16.59 21.75 16.25 21.41 16.25 21C16.25 20.59 16.59 20.25 17 20.25H18C18.41 20.25 18.75 20.59 18.75 21C18.75 21.41 18.41 21.75 18 21.75Z" fill="#292D32"/>
<path d="M35 21.75H34C33.59 21.75 33.25 21.41 33.25 21C33.25 20.59 33.59 20.25 34 20.25H35C35.41 20.25 35.75 20.59 35.75 21C35.75 21.41 35.41 21.75 35 21.75Z" fill="#292D32"/>
<path d="M26 18.75C25.59 18.75 25.25 18.41 25.25 18V16C25.25 15.59 25.59 15.25 26 15.25C26.41 15.25 26.75 15.59 26.75 16V18C26.75 18.41 26.41 18.75 26 18.75Z" fill="#292D32"/>
<path d="M27.5 18.75H24.5C24.09 18.75 23.75 18.41 23.75 18C23.75 17.59 24.09 17.25 24.5 17.25H27.5C27.91 17.25 28.25 17.59 28.25 18C28.25 18.41 27.91 18.75 27.5 18.75Z" fill="#292D32"/>
<path d="M23 28.75H20C19.59 28.75 19.25 28.41 19.25 28C19.25 27.59 19.59 27.25 20 27.25H23C23.41 27.25 23.75 27.59 23.75 28C23.75 28.41 23.41 28.75 23 28.75Z" fill="#292D32"/>
<path d="M32 28.75H29C28.59 28.75 28.25 28.41 28.25 28C28.25 27.59 28.59 27.25 29 27.25H32C32.41 27.25 32.75 27.59 32.75 28C32.75 28.41 32.41 28.75 32 28.75Z" fill="#292D32"/>
</g>
<defs>
<filter id="filter0_d_130_1609" x="0" y="0" width="52" height="52" filterUnits="userSpaceOnUse" color-interpolation-filters="sRGB">
<feFlood flood-opacity="0" result="BackgroundImageFix"/>
<feColorMatrix in="SourceAlpha" type="matrix" values="0 0 0 0 0 0 0 0 0 0 0 0 0 0 0 0 0 0 127 0" result="hardAlpha"/>
<feOffset dy="1"/>
<feGaussianBlur stdDeviation="1"/>
<feComposite in2="hardAlpha" operator="out"/>
<feColorMatrix type="matrix" values="0 0 0 0 0.0627451 0 0 0 0 0.0941176 0 0 0 0 0.156863 0 0 0 0.05 0"/>
<feBlend mode="normal" in2="BackgroundImageFix" result="effect1_dropShadow_130_1609"/>
<feBlend mode="normal" in="SourceGraphic" in2="effect1_dropShadow_130_1609" result="shape"/>
</filter>
</defs>
</svg>
