<svg width="40" height="40" viewBox="0 0 40 40" fill="none" xmlns="http://www.w3.org/2000/svg">
<rect width="40" height="40" rx="20" fill="#4A0CB6" fill-opacity="0.15"/>
<path d="M28.01 27.26C27.82 27.26 27.63 27.19 27.48 27.04L22.53 22.09C22.24 21.8 22.24 21.32 22.53 21.03C22.82 20.74 23.3 20.74 23.59 21.03L28.54 25.98C28.83 26.27 28.83 26.75 28.54 27.04C28.39 27.19 28.2 27.26 28.01 27.26Z" fill="#4A0CB6"/>
<path d="M18.1095 26.43C17.3795 26.43 16.6795 26.14 16.1695 25.62L11.9295 21.38C10.8595 20.31 10.8595 18.56 11.9295 17.49L18.9995 10.4201C20.0695 9.35005 21.8195 9.35005 22.8895 10.4201L27.1295 14.66C27.6495 15.18 27.9395 15.87 27.9395 16.6C27.9395 17.33 27.6495 18.03 27.1295 18.54L20.0595 25.61C19.5395 26.15 18.8495 26.43 18.1095 26.43ZM20.9395 11.12C20.6195 11.12 20.2995 11.24 20.0595 11.49L12.9895 18.56C12.4995 19.05 12.4995 19.84 12.9895 20.33L17.2295 24.57C17.6995 25.04 18.5195 25.04 18.9995 24.57L26.0695 17.5C26.3095 17.26 26.4395 16.95 26.4395 16.62C26.4395 16.29 26.3095 15.97 26.0695 15.74L21.8295 11.5C21.5795 11.24 21.2595 11.12 20.9395 11.12Z" fill="#4A0CB6"/>
<path d="M16 29.75H10C9.59 29.75 9.25 29.41 9.25 29C9.25 28.59 9.59 28.25 10 28.25H16C16.41 28.25 16.75 28.59 16.75 29C16.75 29.41 16.41 29.75 16 29.75Z" fill="#4A0CB6"/>
<path d="M21.63 23.74C21.44 23.74 21.25 23.67 21.1 23.52L14.03 16.45C13.74 16.16 13.74 15.68 14.03 15.39C14.32 15.1 14.8 15.1 15.09 15.39L22.16 22.46C22.45 22.75 22.45 23.23 22.16 23.52C22.02 23.67 21.82 23.74 21.63 23.74Z" fill="#4A0CB6"/>
</svg>
