<svg width="40" height="40" viewBox="0 0 40 40" fill="none" xmlns="http://www.w3.org/2000/svg">
<rect width="40" height="40" rx="20" fill="#4A0CB6" fill-opacity="0.15"/>
<path d="M25.79 30.74H14.21C11.47 30.74 9.25 28.51 9.25 25.77V18.36C9.25 17 10.09 15.29 11.17 14.45L16.56 10.25C18.18 8.98996 20.77 8.92996 22.45 10.11L28.63 14.44C29.82 15.27 30.75 17.05 30.75 18.5V25.78C30.75 28.51 28.53 30.74 25.79 30.74ZM17.48 11.43L12.09 15.63C11.38 16.19 10.75 17.46 10.75 18.36V25.77C10.75 27.68 12.3 29.24 14.21 29.24H25.79C27.7 29.24 29.25 27.69 29.25 25.78V18.5C29.25 17.54 28.56 16.21 27.77 15.67L21.59 11.34C20.45 10.54 18.57 10.58 17.48 11.43Z" fill="#4A0CB6"/>
<path d="M15.5004 25.2499C15.3104 25.2499 15.1204 25.1799 14.9704 25.0299C14.6804 24.7399 14.6804 24.2599 14.9704 23.9699L18.1704 20.7699C18.3304 20.6099 18.5404 20.5299 18.7704 20.5499C18.9904 20.5699 19.1904 20.6899 19.3204 20.8799L20.4104 22.5199L23.9604 18.9699C24.2504 18.6799 24.7304 18.6799 25.0204 18.9699C25.3104 19.2599 25.3104 19.7399 25.0204 20.0299L20.8204 24.2299C20.6604 24.3899 20.4504 24.4699 20.2204 24.4499C20.0004 24.4299 19.8004 24.3099 19.6704 24.1199L18.5804 22.4799L16.0304 25.0299C15.8804 25.1799 15.6904 25.2499 15.5004 25.2499Z" fill="#4A0CB6"/>
<path d="M24.5 22.25C24.09 22.25 23.75 21.91 23.75 21.5V20.25H22.5C22.09 20.25 21.75 19.91 21.75 19.5C21.75 19.09 22.09 18.75 22.5 18.75H24.5C24.91 18.75 25.25 19.09 25.25 19.5V21.5C25.25 21.91 24.91 22.25 24.5 22.25Z" fill="#4A0CB6"/>
</svg>
