<svg width="40" height="40" viewBox="0 0 40 40" fill="none" xmlns="http://www.w3.org/2000/svg">
<rect width="40" height="40" rx="20" fill="#4A0CB6" fill-opacity="0.15"/>
<path d="M23 20.95H16C15.59 20.95 15.25 20.61 15.25 20.2C15.25 19.79 15.59 19.45 16 19.45H23C23.41 19.45 23.75 19.79 23.75 20.2C23.75 20.61 23.41 20.95 23 20.95Z" fill="#4A0CB6"/>
<path d="M20.38 24.95H16C15.59 24.95 15.25 24.61 15.25 24.2C15.25 23.79 15.59 23.45 16 23.45H20.38C20.79 23.45 21.13 23.79 21.13 24.2C21.13 24.61 20.79 24.95 20.38 24.95Z" fill="#4A0CB6"/>
<path d="M22 14.75H18C17.04 14.75 15.25 14.75 15.25 12C15.25 9.25 17.04 9.25 18 9.25H22C22.96 9.25 24.75 9.25 24.75 12C24.75 12.96 24.75 14.75 22 14.75ZM18 10.75C17.01 10.75 16.75 10.75 16.75 12C16.75 13.25 17.01 13.25 18 13.25H22C23.25 13.25 23.25 12.99 23.25 12C23.25 10.75 22.99 10.75 22 10.75H18Z" fill="#4A0CB6"/>
<path d="M23 30.7501H17C11.38 30.7501 10.25 28.1701 10.25 24.0001V18.0001C10.25 13.4401 11.9 11.4901 15.96 11.2801C16.36 11.2601 16.73 11.5701 16.75 11.9901C16.77 12.4101 16.45 12.7501 16.04 12.7701C13.2 12.9301 11.75 13.7801 11.75 18.0001V24.0001C11.75 27.7001 12.48 29.2501 17 29.2501H23C27.52 29.2501 28.25 27.7001 28.25 24.0001V18.0001C28.25 13.7801 26.8 12.9301 23.96 12.7701C23.55 12.7501 23.23 12.3901 23.25 11.9801C23.27 11.5701 23.63 11.2501 24.04 11.2701C28.1 11.4901 29.75 13.4401 29.75 17.9901V23.9901C29.75 28.1701 28.62 30.7501 23 30.7501Z" fill="#4A0CB6"/>
</svg>
