<svg width="22" height="22" viewBox="0 0 22 22" fill="none" xmlns="http://www.w3.org/2000/svg">
<path d="M7.04727 7.85323C7.74327 9.30285 8.69205 10.6615 9.89363 11.8631C11.0952 13.0646 12.4539 14.0134 13.9035 14.7094C14.0282 14.7693 14.0905 14.7992 14.1694 14.8222C14.4498 14.904 14.794 14.8453 15.0314 14.6752C15.0983 14.6274 15.1554 14.5702 15.2697 14.4559C15.6193 14.1063 15.7941 13.9315 15.9699 13.8172C16.6328 13.3862 17.4874 13.3862 18.1503 13.8172C18.326 13.9315 18.5009 14.1063 18.8505 14.4559L19.0453 14.6508C19.5768 15.1822 19.8425 15.448 19.9868 15.7333C20.2739 16.3009 20.2739 16.9712 19.9868 17.5387C19.8425 17.8241 19.5768 18.0898 19.0453 18.6213L18.8877 18.7789C18.3581 19.3085 18.0933 19.5733 17.7332 19.7756C17.3337 20 16.7132 20.1614 16.255 20.16C15.8421 20.1588 15.5598 20.0787 14.9954 19.9185C11.962 19.0575 9.09963 17.433 6.71165 15.045C4.32367 12.6571 2.6992 9.79471 1.83823 6.76131C1.67802 6.19687 1.59792 5.91464 1.59669 5.5017C1.59532 5.04347 1.75669 4.42298 1.98111 4.02348C2.18335 3.66345 2.44817 3.39863 2.97779 2.86901L3.13542 2.71138C3.66687 2.17993 3.93259 1.91421 4.21797 1.76987C4.78553 1.4828 5.4558 1.4828 6.02336 1.76987C6.30874 1.91421 6.57446 2.17993 7.1059 2.71138L7.30077 2.90625C7.65038 3.25585 7.82518 3.43065 7.93947 3.60643C8.37046 4.26932 8.37046 5.1239 7.93946 5.78679C7.82518 5.96257 7.65038 6.13738 7.30077 6.48698C7.18646 6.60129 7.1293 6.65845 7.08146 6.72526C6.91145 6.96269 6.85275 7.30695 6.93447 7.5873C6.95747 7.6662 6.9874 7.72854 7.04727 7.85323Z" stroke="white" stroke-width="2" stroke-linecap="round" stroke-linejoin="round"/>
</svg>
