<svg width="12" height="13" viewBox="0 0 12 13" fill="none" xmlns="http://www.w3.org/2000/svg">
<rect x="0.046875" y="0.107178" width="11.9437" height="11.9437" rx="5.97186" fill="#F2F4F7"/>
<path d="M7.89737 9.61953C7.7215 9.61953 7.49587 9.56312 7.21382 9.39721L6.22167 8.80989C6.11881 8.75016 5.91972 8.75016 5.82017 8.80989L4.82471 9.39721C4.23738 9.74562 3.89229 9.60626 3.73633 9.49344C3.5837 9.38062 3.34479 9.09194 3.50074 8.4283L3.73633 7.40961C3.76288 7.30342 3.70979 7.12092 3.63015 7.04128L2.80724 6.21837C2.39578 5.80691 2.42896 5.45518 2.48537 5.28263C2.54178 5.11009 2.72096 4.80481 3.29169 4.70858L4.3502 4.53272C4.44975 4.51613 4.59243 4.40994 4.63557 4.32035L5.22289 3.14902C5.48835 2.61479 5.83676 2.53516 6.01926 2.53516C6.20176 2.53516 6.55018 2.61479 6.81563 3.14902L7.39964 4.31703C7.44609 4.40663 7.58878 4.51281 7.68832 4.5294L8.74683 4.70527C9.32088 4.80149 9.50006 5.10677 9.55315 5.27932C9.60625 5.45186 9.63943 5.80359 9.23129 6.21505L8.40837 7.04128C8.32874 7.12092 8.27896 7.3001 8.30219 7.40961L8.53778 8.4283C8.69042 9.09194 8.45483 9.38062 8.30219 9.49344C8.21923 9.55317 8.08651 9.61953 7.89737 9.61953ZM6.01926 8.2657C6.18185 8.2657 6.34445 8.30552 6.47386 8.38184L7.466 8.96916C7.75469 9.14171 7.93719 9.14171 8.00687 9.09194C8.07655 9.04216 8.12632 8.8663 8.05332 8.54111L7.81773 7.52242C7.75469 7.24701 7.85755 6.89196 8.05664 6.68955L8.87956 5.86664C9.04215 5.70405 9.11515 5.54477 9.08197 5.43527C9.04547 5.32577 8.89283 5.23618 8.66719 5.19968L7.60869 5.02381C7.35318 4.98068 7.07445 4.77495 6.95832 4.54267L6.37431 3.37466C6.26813 3.1623 6.1354 3.03621 6.01926 3.03621C5.90313 3.03621 5.7704 3.1623 5.66753 3.37466L5.08021 4.54267C4.96407 4.77495 4.68534 4.98068 4.42984 5.02381L3.37465 5.19968C3.14901 5.23618 2.99637 5.32577 2.95987 5.43527C2.92337 5.54477 2.99969 5.70736 3.16228 5.86664L3.9852 6.68955C4.18429 6.88865 4.28716 7.24701 4.22411 7.52242L3.98852 8.54111C3.9122 8.86962 3.96529 9.04216 4.03497 9.09194C4.10466 9.14171 4.28384 9.13839 4.57584 8.96916L5.56799 8.38184C5.69408 8.30552 5.85667 8.2657 6.01926 8.2657Z" fill="#292D32"/>
</svg>
