<svg width="76" height="76" viewBox="0 0 76 76" fill="none" xmlns="http://www.w3.org/2000/svg">
<rect width="76" height="76" rx="38" fill="white"/>
<path d="M37.9248 13C24.1248 13 12.9248 24.2 12.9248 38C12.9248 51.8 24.1248 63 37.9248 63C51.7248 63 62.9248 51.8 62.9248 38C62.9248 24.2 51.7498 13 37.9248 13ZM45.4248 43.575L38.1748 47.75C37.2748 48.275 36.2748 48.525 35.2998 48.525C34.2998 48.525 33.3248 48.275 32.4248 47.75C30.6248 46.7 29.5498 44.85 29.5498 42.75V34.375C29.5498 32.3 30.6248 30.425 32.4248 29.375C34.2248 28.325 36.3748 28.325 38.1998 29.375L45.4498 33.55C47.2498 34.6 48.3248 36.45 48.3248 38.55C48.3248 40.65 47.2498 42.525 45.4248 43.575Z" fill="#4A0CB6"/>
</svg>
